<?xml version="1.0" encoding="utf-8"?>
<!-- Generator: Adobe Illustrator 16.0.0, SVG Export Plug-In . SVG Version: 6.00 Build 0)  -->
<!DOCTYPE svg PUBLIC "-//W3C//DTD SVG 1.1//EN" "http://www.w3.org/Graphics/SVG/1.1/DTD/svg11.dtd">
<svg version="1.1" id="圖層_1" xmlns="http://www.w3.org/2000/svg" xmlns:xlink="http://www.w3.org/1999/xlink" x="0px" y="0px"
	 width="150px" height="150px" viewBox="0 0 150 150" enable-background="new 0 0 150 150" xml:space="preserve">
<g>
	<g>
		<path fill="#004098" d="M114.117,135.28V45.294h33.401v89.986H114.117z"/>
		<polygon fill="none" points="35.717,39.748 35.717,57.791 62.203,57.791 62.203,39.634 36.303,39.634 36.303,39.748 		"/>
		<path fill="#DCDDDD" d="M70.474,9.425H36.303v30.209h25.9v18.963H35.717v28.151h34.757c14.705,0,21.39-5.682,21.39-23.001V32.428
			C91.863,14.962,85.179,9.425,70.474,9.425z"/>
		<rect x="35.717" y="39.634" fill="#FFFFFF" width="0.586" height="0.114"/>
		<rect x="36.303" y="86.904" fill="none" width="30.204" height="18.153"/>
		<path fill="#004098" d="M75.936,57.943H36.303V39.704H2.482v65.354h33.821V86.904h30.204v18.153H36.303v30.223h39.633
			c16.759,0,24.39-5.543,24.39-23.004V80.955C100.325,63.629,92.694,57.943,75.936,57.943z"/>
		<path fill="#004098" d="M114.117,39.756V9.717h33.401v30.039H114.117z"/>
	</g>
</g>
</svg>
