<?xml version="1.0" encoding="utf-8"?>
<!-- Generator: Adobe Illustrator 16.0.0, SVG Export Plug-In . SVG Version: 6.00 Build 0)  -->
<!DOCTYPE svg PUBLIC "-//W3C//DTD SVG 1.1//EN" "http://www.w3.org/Graphics/SVG/1.1/DTD/svg11.dtd">
<svg version="1.1" id="圖層_1" xmlns="http://www.w3.org/2000/svg" xmlns:xlink="http://www.w3.org/1999/xlink" x="0px" y="0px"
	 width="250px" height="250px" viewBox="0 0 250 250" enable-background="new 0 0 250 250" xml:space="preserve">
<path fill="#FFFFFF" d="M180.111,211.982V76.795h50.181v135.188H180.111z"/>
<polygon fill="none" points="62.331,68.463 62.331,95.569 102.121,95.569 102.121,68.292 63.211,68.292 63.211,68.463 "/>
<path fill="#DCDDDD" d="M114.546,22.909H63.211v45.383h38.91V96.78h-39.79v42.292h52.215c22.093,0,32.133-8.533,32.133-34.556
	V57.467C146.68,31.227,136.64,22.909,114.546,22.909z"/>
<rect x="62.331" y="68.292" fill="#FFFFFF" width="0.88" height="0.171"/>
<rect x="63.211" y="139.307" fill="none" width="45.375" height="27.273"/>
<path fill="#FFFFFF" d="M122.752,95.797H63.211V68.397h-50.81v98.183h50.81v-27.273h45.375v27.273H63.211v45.402h59.541
	c25.177,0,36.64-8.328,36.64-34.559v-47.055C159.392,104.34,147.929,95.797,122.752,95.797z"/>
<path fill="#FFFFFF" d="M180.111,68.475V23.348h50.181v45.127H180.111z"/>
</svg>
